<?xml version="1.0" standalone="no"?>
<!DOCTYPE svg PUBLIC "-//W3C//DTD SVG 20010904//EN"
 "http://www.w3.org/TR/2001/REC-SVG-20010904/DTD/svg10.dtd">
<svg version="1.0" xmlns="http://www.w3.org/2000/svg"
 width="212.000000pt" height="212.000000pt" viewBox="0 0 212.000000 212.000000"
 preserveAspectRatio="xMidYMid meet">

<g transform="translate(0.000000,212.000000) scale(0.100000,-0.100000)"
fill="#898988" stroke="none">
<path d="M53 1803 c-4 -21 -8 -103 -8 -183 0 -131 3 -152 27 -218 46 -126 129
-249 161 -237 9 4 17 13 17 21 0 8 25 73 55 145 30 72 55 132 55 133 0 2 -61
54 -136 116 l-136 113 6 41 c4 22 8 42 10 43 2 2 95 -26 207 -61 199 -63 204
-64 212 -43 4 11 4 23 0 27 -10 8 -434 140 -451 140 -6 0 -15 -17 -19 -37z"/>
<path d="M1801 1771 c-118 -37 -217 -73 -219 -79 -2 -6 0 -17 5 -25 6 -11 46
-2 212 50 112 35 204 63 206 61 1 -2 6 -21 9 -44 l7 -40 -136 -113 c-96 -80
-135 -119 -132 -130 22 -71 115 -281 127 -286 34 -14 137 163 170 291 34 130
21 385 -19 383 -9 0 -113 -31 -230 -68z"/>
<path d="M1095 1786 c-35 -25 -17 -106 24 -106 42 0 57 72 23 103 -22 20 -23
21 -47 3z"/>
<path d="M849 1712 c-42 -37 -52 -109 -20 -141 30 -30 68 -27 102 10 24 25 29
40 29 79 0 39 -4 52 -22 64 -32 23 -53 20 -89 -12z"/>
<path d="M1240 1650 c-11 -11 -20 -33 -20 -50 0 -31 30 -70 53 -70 43 0 64 92
29 123 -24 22 -38 21 -62 -3z"/>
<path d="M662 1628 c-36 -36 24 -130 73 -112 26 10 36 39 24 73 -16 46 -69 67
-97 39z"/>
<path d="M1037 1589 c-21 -12 -47 -61 -47 -87 0 -22 30 -52 53 -52 24 0 74 47
81 76 14 53 -38 91 -87 63z"/>
<path d="M1402 1568 c-18 -18 -14 -36 13 -54 32 -21 65 -10 65 21 0 37 -52 59
-78 33z"/>
<path d="M533 1367 c-73 -22 -133 -43 -133 -46 1 -3 51 -41 113 -84 62 -43
122 -86 135 -95 l23 -18 -92 -189 c-193 -401 -228 -476 -219 -473 5 2 101 134
213 293 l205 290 4 127 5 127 -49 56 c-27 30 -55 55 -61 54 -7 -1 -72 -20
-144 -42z"/>
<path d="M1354 1357 l-48 -55 3 -128 3 -128 206 -292 c113 -161 210 -290 215
-287 4 2 4 10 -2 16 -5 7 -77 154 -160 327 l-151 315 22 17 c13 10 73 52 135
95 62 43 112 81 113 84 0 4 -160 55 -271 86 -10 3 -34 -15 -65 -50z"/>
<path d="M865 1366 c-23 -17 -24 -71 -2 -93 13 -14 21 -14 42 -5 20 9 25 19
25 46 0 31 -20 66 -39 66 -4 0 -16 -6 -26 -14z"/>
<path d="M1167 1362 c-23 -25 -22 -69 2 -77 25 -8 46 2 61 29 27 52 -24 91
-63 48z"/>
<path d="M1014 1330 c-48 -18 -36 -100 19 -130 27 -14 29 -14 48 9 23 28 24
59 3 89 -21 30 -45 41 -70 32z"/>
<path d="M770 755 c0 -3 52 -62 115 -131 104 -115 115 -130 115 -164 0 -38 -1
-39 -122 -116 -68 -42 -127 -81 -132 -85 -9 -7 28 -49 43 -49 5 0 62 34 127
75 65 41 121 75 126 75 5 0 58 -32 118 -70 60 -39 117 -73 125 -76 15 -6 55
21 55 37 0 4 -58 45 -130 90 -127 81 -130 84 -130 118 0 32 13 50 120 161 65
69 119 128 120 133 0 4 -124 7 -275 7 -151 0 -275 -2 -275 -5z"/>
</g>
</svg>
